<svg width="85" height="33" viewBox="0 0 85 33" fill="none" xmlns="http://www.w3.org/2000/svg">
<g filter="url(#filter0_d)">
<rect width="85" height="28" rx="10" fill="#580FA7"/>
</g>
<path d="M25.508 9.336C25.98 9.568 26.216 9.824 26.216 10.104C26.216 10.232 26.156 10.424 26.036 10.68L22.724 17.4C22.636 17.576 22.5 17.72 22.316 17.832C22.14 17.936 21.956 17.988 21.764 17.988H21.644C21.444 17.988 21.252 17.936 21.068 17.832C20.892 17.72 20.76 17.576 20.672 17.4L17.36 10.68C17.24 10.424 17.18 10.232 17.18 10.104C17.18 9.824 17.416 9.568 17.888 9.336C18.152 9.2 18.352 9.132 18.488 9.132C18.632 9.132 18.74 9.148 18.812 9.18C18.884 9.212 18.952 9.268 19.016 9.348C19.088 9.444 19.152 9.552 19.208 9.672C19.272 9.784 19.428 10.116 19.676 10.668C19.924 11.212 20.188 11.792 20.468 12.408C20.756 13.024 21.024 13.608 21.272 14.16C21.528 14.704 21.672 15.008 21.704 15.072L24.104 9.816C24.168 9.664 24.224 9.544 24.272 9.456C24.416 9.24 24.592 9.132 24.8 9.132C25.008 9.132 25.244 9.2 25.508 9.336ZM30.1498 9.828L33.3898 16.524C33.5258 16.796 33.5938 17 33.5938 17.136C33.5938 17.424 33.3618 17.684 32.8978 17.916C32.6258 18.052 32.4098 18.12 32.2498 18.12C32.0978 18.12 31.9698 18.084 31.8658 18.012C31.7698 17.94 31.6978 17.864 31.6497 17.784C31.6098 17.704 31.5498 17.584 31.4698 17.424L30.8458 16.128H27.5218L26.8978 17.424C26.8178 17.584 26.7538 17.7 26.7058 17.772C26.6658 17.844 26.5938 17.92 26.4898 18C26.3938 18.072 26.2658 18.108 26.1058 18.108C25.9538 18.108 25.7418 18.04 25.4698 17.904C25.0058 17.68 24.7738 17.424 24.7738 17.136C24.7738 17 24.8418 16.796 24.9778 16.524L28.2178 9.816C28.3058 9.632 28.4378 9.484 28.6138 9.372C28.7978 9.26 28.9898 9.204 29.1898 9.204C29.6218 9.204 29.9418 9.412 30.1498 9.828ZM29.1778 12.708L28.3858 14.352H29.9818L29.1778 12.708ZM36.3735 16.224H39.6375C39.9015 16.224 40.0935 16.256 40.2135 16.32C40.3335 16.376 40.4135 16.468 40.4535 16.596C40.4935 16.724 40.5135 16.896 40.5135 17.112C40.5135 17.32 40.4935 17.488 40.4535 17.616C40.4135 17.744 40.3455 17.832 40.2495 17.88C40.0975 17.96 39.8895 18 39.6255 18H35.3055C34.7455 18 34.4175 17.848 34.3215 17.544C34.2735 17.416 34.2495 17.212 34.2495 16.932V10.26C34.2495 10.076 34.2535 9.94 34.2615 9.852C34.2775 9.756 34.3175 9.648 34.3815 9.528C34.4935 9.312 34.8055 9.204 35.3175 9.204C35.8775 9.204 36.2095 9.352 36.3135 9.648C36.3535 9.784 36.3735 9.992 36.3735 10.272V16.224ZM41.2925 10.26C41.2925 10.076 41.2965 9.94 41.3045 9.852C41.3205 9.756 41.3605 9.648 41.4245 9.528C41.5365 9.312 41.8485 9.204 42.3605 9.204C42.9205 9.204 43.2525 9.352 43.3565 9.648C43.3965 9.784 43.4165 9.992 43.4165 10.272V16.944C43.4165 17.136 43.4085 17.276 43.3925 17.364C43.3845 17.452 43.3485 17.556 43.2845 17.676C43.1725 17.892 42.8605 18 42.3485 18C41.7885 18 41.4605 17.848 41.3645 17.544C41.3165 17.416 41.2925 17.212 41.2925 16.932V10.26ZM45.4425 9.192L47.6625 9.204C48.8225 9.204 49.8425 9.624 50.7225 10.464C51.6025 11.296 52.0425 12.324 52.0425 13.548C52.0425 14.764 51.6105 15.808 50.7465 16.68C49.8905 17.552 48.8505 17.988 47.6265 17.988H45.4305C44.9425 17.988 44.6385 17.888 44.5185 17.688C44.4225 17.52 44.3745 17.264 44.3745 16.92V10.248C44.3745 10.056 44.3785 9.916 44.3865 9.828C44.4025 9.74 44.4425 9.636 44.5065 9.516C44.6185 9.3 44.9305 9.192 45.4425 9.192ZM47.6625 15.864C48.2385 15.864 48.7585 15.652 49.2225 15.228C49.6865 14.796 49.9185 14.256 49.9185 13.608C49.9185 12.96 49.6905 12.42 49.2345 11.988C48.7865 11.548 48.2585 11.328 47.6505 11.328H46.4985V15.864H47.6625ZM54.9478 15.876H58.6438C58.8278 15.876 58.9638 15.884 59.0518 15.9C59.1478 15.908 59.2558 15.944 59.3758 16.008C59.5918 16.12 59.6998 16.432 59.6998 16.944C59.6998 17.504 59.5518 17.832 59.2558 17.928C59.1198 17.976 58.9118 18 58.6318 18H53.8798C53.3198 18 52.9918 17.848 52.8958 17.544C52.8478 17.416 52.8238 17.212 52.8238 16.932V10.26C52.8238 9.852 52.8998 9.576 53.0518 9.432C53.2038 9.28 53.4918 9.204 53.9158 9.204H58.6438C58.8278 9.204 58.9638 9.212 59.0518 9.228C59.1478 9.236 59.2558 9.272 59.3758 9.336C59.5918 9.448 59.6998 9.76 59.6998 10.272C59.6998 10.832 59.5518 11.16 59.2558 11.256C59.1198 11.304 58.9118 11.328 58.6318 11.328H54.9478V12.54H57.3238C57.5078 12.54 57.6438 12.548 57.7318 12.564C57.8278 12.572 57.9358 12.608 58.0558 12.672C58.2718 12.784 58.3798 13.096 58.3798 13.608C58.3798 14.168 58.2278 14.496 57.9238 14.592C57.7878 14.64 57.5798 14.664 57.2998 14.664H54.9478V15.876ZM67.2081 16.512C67.3281 16.8 67.3881 17.008 67.3881 17.136C67.3881 17.44 67.1401 17.696 66.6441 17.904C66.3881 18.016 66.1801 18.072 66.0201 18.072C65.8681 18.072 65.7401 18.036 65.6361 17.964C65.5401 17.884 65.4681 17.804 65.4201 17.724C65.3401 17.572 65.0281 16.848 64.4841 15.552L64.1121 15.576H62.6001V16.932C62.6001 17.116 62.5921 17.256 62.5761 17.352C62.5681 17.44 62.5321 17.544 62.4681 17.664C62.3561 17.88 62.0441 17.988 61.5321 17.988C60.9721 17.988 60.6441 17.84 60.5481 17.544C60.5001 17.408 60.4761 17.2 60.4761 16.92V10.26C60.4761 10.076 60.4801 9.94 60.4881 9.852C60.5041 9.756 60.5441 9.648 60.6081 9.528C60.7201 9.312 61.0321 9.204 61.5441 9.204H64.1361C64.8401 9.204 65.5241 9.46 66.1881 9.972C66.5081 10.22 66.7721 10.556 66.9801 10.98C67.1881 11.404 67.2921 11.876 67.2921 12.396C67.2921 13.3 66.9921 14.044 66.3921 14.628C66.5681 15.052 66.8401 15.68 67.2081 16.512ZM62.6001 13.452H64.1361C64.3681 13.452 64.6001 13.364 64.8321 13.188C65.0641 13.012 65.1801 12.748 65.1801 12.396C65.1801 12.044 65.0641 11.78 64.8321 11.604C64.6001 11.42 64.3601 11.328 64.1121 11.328H62.6001V13.452Z" fill="white"/>
<defs>
<filter id="filter0_d" x="0" y="0" width="85" height="33" filterUnits="userSpaceOnUse" color-interpolation-filters="sRGB">
<feFlood flood-opacity="0" result="BackgroundImageFix"/>
<feColorMatrix in="SourceAlpha" type="matrix" values="0 0 0 0 0 0 0 0 0 0 0 0 0 0 0 0 0 0 127 0"/>
<feOffset dy="5"/>
<feColorMatrix type="matrix" values="0 0 0 0 0 0 0 0 0 0 0 0 0 0 0 0 0 0 0.1 0"/>
<feBlend mode="normal" in2="BackgroundImageFix" result="effect1_dropShadow"/>
<feBlend mode="normal" in="SourceGraphic" in2="effect1_dropShadow" result="shape"/>
</filter>
</defs>
</svg>
